<svg width="100" height="100" viewBox="0 0 100 100" fill="none" xmlns="http://www.w3.org/2000/svg">
<path d="M50 100C77.6142 100 100 77.6142 100 50C100 22.3858 77.6142 0 50 0C22.3858 0 0 22.3858 0 50C0 77.6142 22.3858 100 50 100Z" fill="#8D24A9"/>
<path d="M100.001 50.0004C100.001 48.3131 99.916 46.6457 99.7529 45.0012L83.5699 28.8184L16.9297 71.9002L44.7566 99.7271C46.4803 99.9068 48.2297 100 50.001 100C77.6152 100 100.001 77.6146 100.001 50.0004Z" fill="#6A1B99"/>
<path d="M79.0039 73.8172H20.9961C18.0836 73.8172 15.7227 71.4562 15.7227 68.5437V31.457C15.7227 28.5445 18.0836 26.1836 20.9961 26.1836H79.0039C81.9164 26.1836 84.2773 28.5445 84.2773 31.457V68.5437C84.2773 71.4562 81.9164 73.8172 79.0039 73.8172Z" fill="#FEEA3B"/>
<path d="M79.0043 26.1836H50.1074V73.8172H79.0043C81.9168 73.8172 84.2777 71.4562 84.2777 68.5437V31.457C84.2777 28.5445 81.9168 26.1836 79.0043 26.1836Z" fill="#F9C41E"/>
<path d="M84.2773 34.8633H15.7227V46.7773H84.2773V34.8633Z" fill="#455A64"/>
<path d="M84.2773 34.8633H50.1074V46.7773H84.2773V34.8633Z" fill="#37474F"/>
<path d="M45.0195 52.3438H22.7539V54.1992H45.0195V52.3438Z" fill="#FF7C11"/>
<path d="M40.8203 63.0859H22.7539V64.9414H40.8203V63.0859Z" fill="#FF7C11"/>
<path d="M37.5977 57.7148H22.7539V59.5703H37.5977V57.7148Z" fill="#FF7C11"/>
</svg>
