<svg width="23" height="22" viewBox="0 0 23 22" fill="none" xmlns="http://www.w3.org/2000/svg">
<path d="M10.9669 20.106H2.7417C2.23722 20.106 1.82782 19.6965 1.82782 19.1921V2.74175C1.82782 2.23726 2.23726 1.82786 2.7417 1.82786H10.9669C11.4723 1.82786 11.8808 1.41936 11.8808 0.913972C11.8808 0.408588 11.4723 0 10.9669 0H2.7417C1.23011 0 0 1.23015 0 2.74175V19.192C0 20.7036 1.23011 21.9337 2.7417 21.9337H10.9669C11.4723 21.9337 11.8808 21.5252 11.8808 21.0199C11.8808 20.5145 11.4723 20.106 10.9669 20.106Z" fill="white"/>
<path d="M21.7338 10.3149L16.1772 4.83147C15.819 4.47686 15.2396 4.48146 14.885 4.84062C14.5304 5.19978 14.534 5.77828 14.8941 6.13288L18.865 10.0517H8.22443C7.71905 10.0517 7.31055 10.4602 7.31055 10.9656C7.31055 11.471 7.71905 11.8795 8.22443 11.8795H18.865L14.8941 15.7983C14.5341 16.1529 14.5313 16.7314 14.885 17.0906C15.0641 17.2715 15.2999 17.3629 15.5357 17.3629C15.7678 17.3629 15.9999 17.2752 16.1772 17.0997L21.7338 11.6162C21.9075 11.4444 22.0061 11.2104 22.0061 10.9655C22.0061 10.7207 21.9084 10.4877 21.7338 10.3149Z" fill="white"/>
</svg>
