<svg width="17" height="13" viewBox="0 0 17 13" fill="none" xmlns="http://www.w3.org/2000/svg">
<path d="M8.5 0.959961C4.75039 0.959961 1.51872 3.17033 0.0341951 6.36006C-0.0113984 6.45672 -0.0113984 6.56979 0.0341951 6.66827C1.51872 9.85797 4.75041 12.0684 8.5 12.0684C12.2496 12.0684 15.4813 9.85799 16.9658 6.66827C17.0114 6.57161 17.0114 6.45854 16.9658 6.36006C15.4813 3.17033 12.2496 0.959961 8.5 0.959961ZM8.5 10.3468C6.38264 10.3468 4.66832 8.63061 4.66832 6.51508C4.66832 4.39771 6.38446 2.6834 8.5 2.6834C10.6174 2.6834 12.3317 4.39954 12.3317 6.51508C12.3317 8.63061 10.6155 10.3468 8.5 10.3468Z" fill="black" fill-opacity="0.2"/>
<path d="M8.49981 8.96641C9.85452 8.96641 10.9527 7.86819 10.9527 6.51348C10.9527 5.15876 9.85452 4.06055 8.49981 4.06055C7.14509 4.06055 6.04688 5.15876 6.04688 6.51348C6.04688 7.86819 7.14509 8.96641 8.49981 8.96641Z" fill="black" fill-opacity="0.2"/>
</svg>
