<svg width="17" height="17" viewBox="0 0 17 17" fill="none" xmlns="http://www.w3.org/2000/svg">
<path d="M16.8632 6.92657C16.9387 6.92657 17 6.98783 17 7.0634V8.5C17 9.03769 16.9501 9.56343 16.8543 10.0734C16.1133 14.0349 12.6233 17.0286 8.44006 16.9998C3.74616 16.9674 -0.0103711 13.1748 2.15115e-05 8.48084C0.0103477 3.79532 3.81204 0 8.49999 0C10.7967 0 12.8806 0.91116 14.4106 2.39122C14.4659 2.44465 14.4673 2.5327 14.4129 2.58702L12.3805 4.61942C12.3282 4.67175 12.2437 4.67311 12.1901 4.62207C11.2298 3.70803 9.93054 3.14686 8.49999 3.14686C5.54587 3.14686 3.16704 5.5088 3.14698 8.46285C3.12683 11.4363 5.53126 13.8531 8.49999 13.8531C10.9087 13.8531 12.946 12.2619 13.6178 10.0734H8.63682C8.56125 10.0734 8.49999 10.0122 8.49999 9.9366V7.06337C8.49999 6.9878 8.56125 6.92654 8.63682 6.92654H16.8632V6.92657Z" fill="#A8A8A8"/>
<path d="M16.8631 6.92676H15.837C15.9125 6.92676 15.9738 6.98802 15.9738 7.06359V8.50019C15.9738 9.03788 15.9239 9.56362 15.8281 10.0736C15.1211 13.8529 11.9122 16.7513 7.98633 16.9848C8.13654 16.9937 8.28775 16.9989 8.44002 17C12.6233 17.0288 16.1132 14.035 16.8542 10.0736C16.95 9.56362 16.9999 9.03788 16.9999 8.50019V7.06355C16.9999 6.98802 16.9387 6.92676 16.8631 6.92676Z" fill="#A8A8A8"/>
<path d="M3.63812 6.25819L1.05664 4.39297C2.50489 1.77355 5.29568 0 8.50038 0C10.7971 0 12.881 0.91116 14.411 2.39122C14.4663 2.44465 14.4677 2.5327 14.4133 2.58702L12.3809 4.61942C12.3287 4.67165 12.2442 4.67327 12.1907 4.62234C11.2304 3.70813 9.93107 3.14689 8.50038 3.14689C6.34444 3.14689 4.48606 4.42136 3.63812 6.25819Z" fill="#A8A8A8"/>
<path d="M2.89258 5.71933L3.63782 6.25778C4.41179 4.58122 6.02772 3.37376 7.94321 3.1757C7.95762 3.17414 7.97146 3.17225 7.98614 3.17086C7.81756 3.15485 7.64673 3.14648 7.47395 3.14648C5.52635 3.14648 3.82901 4.17322 2.89258 5.71933Z" fill="#A8A8A8"/>
<path d="M13.384 2.39122C13.4392 2.44465 13.4406 2.5327 13.3863 2.58705L11.7367 4.23669C11.8947 4.35688 12.046 4.48544 12.1895 4.62211C12.2431 4.67314 12.3277 4.67178 12.38 4.61945L14.4124 2.58705C14.4668 2.5327 14.4653 2.44468 14.4101 2.39122C12.8801 0.91116 10.7962 0 8.49948 0C8.32713 0 8.15613 0.00574414 7.98633 0.0158711C10.0795 0.140549 11.9687 1.02219 13.384 2.39122Z" fill="#A8A8A8"/>
<path d="M14.735 14.2762C13.1827 15.9512 10.9635 16.9996 8.49969 16.9996C5.17187 16.9996 2.29077 15.0872 0.895508 12.3012L3.53101 10.4951C4.32187 12.463 6.24865 13.8527 8.49969 13.8527C9.91235 13.8527 11.1971 13.3054 12.1535 12.4113L14.735 14.2762Z" fill="#A8A8A8"/>
<path d="M3.53106 10.4951L2.75391 11.0277C3.65653 12.7092 5.43154 13.8527 7.47356 13.8527C7.64625 13.8527 7.81695 13.8442 7.98546 13.8282C5.95844 13.635 4.26093 12.3113 3.53106 10.4951Z" fill="#A8A8A8"/>
<path d="M8.50007 17.0005C10.9639 17.0005 13.1831 15.9521 14.7354 14.2771L14.1031 13.8203C12.6456 15.6342 10.4592 16.8375 7.98828 16.985C8.15762 16.9951 8.32821 17.0005 8.50007 17.0005Z" fill="#A8A8A8"/>
<path d="M3.14689 8.49961C3.14689 9.20491 3.28336 9.87843 3.53135 10.4951L0.89582 12.3012C0.322568 11.1574 0 9.86611 0 8.49961C0 7.00998 0.383098 5.60994 1.05626 4.39258L3.63773 6.2578C3.3227 6.93949 3.14689 7.69921 3.14689 8.49961Z" fill="#A8A8A8"/>
<path d="M2.75457 11.0281L3.53172 10.4955C3.28373 9.87882 3.14726 9.20529 3.14726 8.49999C3.14726 7.6996 3.32307 6.93988 3.6381 6.25818L2.89286 5.71973C2.40893 6.51876 2.12806 7.45638 2.12122 8.46287C2.11491 9.39103 2.34491 10.265 2.75457 11.0281Z" fill="#A8A8A8"/>
</svg>
