<svg width="100" height="100" viewBox="0 0 100 100" fill="none" xmlns="http://www.w3.org/2000/svg">
<path d="M50 100C77.6142 100 100 77.6142 100 50C100 22.3858 77.6142 0 50 0C22.3858 0 0 22.3858 0 50C0 77.6142 22.3858 100 50 100Z" fill="#555A66"/>
<path d="M99.9508 47.8478L70.6996 18.5967L59.4492 62.1365L83.9834 86.6707C93.833 77.5387 99.9998 64.49 99.9998 49.9992C99.9998 49.2781 99.9811 48.5615 99.9508 47.8478Z" fill="#333940"/>
<path d="M3.25391 67.7734C10.4211 86.6121 28.6449 100 49.9988 100C71.3527 100 89.5766 86.6121 96.7438 67.7734H3.25391Z" fill="#00C8C8"/>
<path d="M49.9805 67.7734V99.9998C49.9867 99.9998 49.9928 100 49.999 100C71.3529 100 89.5768 86.6121 96.7439 67.7734H49.9805Z" fill="#1CADB5"/>
<path d="M72.7883 67.7736H27.2109V24.6854C27.2109 19.2035 31.6547 14.7598 37.1365 14.7598H62.8629C68.3447 14.7598 72.7885 19.2035 72.7885 24.6854V67.7736H72.7883Z" fill="#DCE1EB"/>
<path d="M72.7879 24.6854C72.7879 19.2035 68.3441 14.7598 62.8623 14.7598H49.9805V67.7736H72.7879V24.6854Z" fill="#BEC3D2"/>
<path d="M34.5703 43.9453V31.0547H41.2173C42.4498 31.0547 43.3919 31.1603 44.0435 31.3713C44.695 31.5823 45.2202 31.9736 45.6193 32.5451C46.0184 33.1168 46.218 33.8128 46.218 34.6335C46.218 35.3487 46.0653 35.9657 45.7598 36.4844C45.4544 37.0033 45.0344 37.4239 44.5002 37.7462C44.1595 37.9514 43.6927 38.1213 43.0996 38.2561C43.5745 38.4147 43.9206 38.5731 44.1378 38.7313C44.2845 38.8369 44.497 39.0628 44.7757 39.4092C45.0542 39.7553 45.2405 40.0223 45.3343 40.2101L47.2656 43.9453H42.7591L40.6274 40.006C40.3575 39.496 40.1168 39.1649 39.9055 39.0125C39.6179 38.8132 39.2921 38.7135 38.9282 38.7135H38.576V43.9453H34.5703ZM38.5762 36.2778H40.2577C40.4396 36.2778 40.7918 36.2192 41.3141 36.1019C41.5783 36.0491 41.7939 35.9143 41.9613 35.6975C42.1286 35.4807 42.2121 35.2314 42.2121 34.9501C42.2121 34.534 42.0801 34.2144 41.816 33.9917C41.5518 33.7689 41.0559 33.6576 40.3281 33.6576H38.576V36.2778H38.5762Z" fill="#424952"/>
<path d="M48.6328 31.0547H52.5391V43.9453H48.6328V31.0547Z" fill="#424952"/>
<path d="M52.5391 31.0547H50V43.9453H52.5391V31.0547Z" fill="#33383E"/>
<path d="M55.4689 31.0547H62.0894C63.5313 31.0547 64.6113 31.3977 65.3292 32.0836C66.047 32.7694 66.4062 33.7453 66.4062 35.0116C66.4062 36.3129 66.015 37.3301 65.2324 38.0628C64.4499 38.7957 63.2556 39.1619 61.6496 39.1619H59.4692V43.9453H55.4688V31.0547H55.4689ZM59.4692 36.5503H60.4451C61.2129 36.5503 61.7522 36.4171 62.0629 36.1501C62.3733 35.8835 62.5289 35.5421 62.5289 35.1258C62.5289 34.7212 62.394 34.3784 62.1246 34.0969C61.8548 33.8156 61.3479 33.6749 60.6035 33.6749H59.4693V36.5503H59.4692Z" fill="#33383E"/>
</svg>
