<svg width="24" height="24" viewBox="0 0 24 24" fill="none" xmlns="http://www.w3.org/2000/svg">
<path d="M21.8906 0H2.10938C0.946266 0 0 0.946268 0 2.10938V20.3907C0 21.5538 0.946266 22.5 2.10938 22.5H8.48438V23.2969C8.48438 23.6852 8.79919 24 9.1875 24C9.57581 24 9.89062 23.6852 9.89062 23.2969V19.6379C9.89062 19.3869 9.75684 19.1549 9.53958 19.0292C8.0213 18.151 7.07812 16.5172 7.07812 14.7657C7.07812 13.4666 7.59698 12.2323 8.48438 11.3231V13.3594C8.48438 13.5807 8.58858 13.7891 8.76562 13.9219L11.5781 16.0313C11.8281 16.2188 12.1719 16.2188 12.4219 16.0313L15.2344 13.9219C15.4114 13.7891 15.5156 13.5807 15.5156 13.3594V11.3231C16.403 12.2323 16.9219 13.4666 16.9219 14.7657C16.9219 16.5172 15.9787 18.151 14.4604 19.0292C14.2432 19.1549 14.1094 19.3869 14.1094 19.6379V23.2969C14.1094 23.6852 14.4242 24 14.8125 24C15.2008 24 15.5156 23.6852 15.5156 23.2969V22.5H21.8906C23.0537 22.5 24 21.5538 24 20.3907V2.10938C24 0.946268 23.0537 0 21.8906 0ZM2.10938 1.40625H21.8906C22.2783 1.40625 22.5938 1.72168 22.5938 2.10938V5.62501H1.40625V2.10938C1.40625 1.72168 1.72167 1.40625 2.10938 1.40625ZM21.8906 21.0938H15.5156V20.0277C17.2603 18.8592 18.3281 16.8793 18.3281 14.7657C18.3281 12.5138 17.1159 10.4136 15.1646 9.28483C14.6961 9.01375 14.1094 9.35318 14.1094 9.89346V13.0078L12 14.5899L9.89062 13.0078V9.89346C9.89062 9.35224 9.30309 9.01418 8.83542 9.28483C6.88406 10.4136 5.67188 12.5138 5.67188 14.7657C5.67188 16.8793 6.73969 18.8592 8.48438 20.0277V21.0938H2.10938C1.72167 21.0938 1.40625 20.7784 1.40625 20.3907V7.03126H22.5938V20.3907C22.5938 20.7784 22.2783 21.0938 21.8906 21.0938Z" fill="#3939D6"/>
<path d="M3.5625 4.21875C3.95083 4.21875 4.26563 3.90395 4.26563 3.51563C4.26563 3.1273 3.95083 2.8125 3.5625 2.8125C3.17417 2.8125 2.85938 3.1273 2.85938 3.51563C2.85938 3.90395 3.17417 4.21875 3.5625 4.21875Z" fill="#3939D6"/>
<path d="M6.375 4.21875C6.76333 4.21875 7.07813 3.90395 7.07813 3.51563C7.07813 3.1273 6.76333 2.8125 6.375 2.8125C5.98667 2.8125 5.67188 3.1273 5.67188 3.51563C5.67188 3.90395 5.98667 4.21875 6.375 4.21875Z" fill="#3939D6"/>
<path d="M9.1875 4.21875C9.57583 4.21875 9.89063 3.90395 9.89063 3.51563C9.89063 3.1273 9.57583 2.8125 9.1875 2.8125C8.79917 2.8125 8.48438 3.1273 8.48438 3.51563C8.48438 3.90395 8.79917 4.21875 9.1875 4.21875Z" fill="#3939D6"/>
<path d="M16.2188 4.21875H20.4375C20.8258 4.21875 21.1406 3.90394 21.1406 3.51563C21.1406 3.12731 20.8258 2.8125 20.4375 2.8125H16.2188C15.8304 2.8125 15.5156 3.12731 15.5156 3.51563C15.5156 3.90394 15.8304 4.21875 16.2188 4.21875Z" fill="#3939D6"/>
</svg>
