<svg width="24" height="24" viewBox="0 0 24 24" fill="none" xmlns="http://www.w3.org/2000/svg">
<path d="M24 7H22.5V2.75C22.5 2.061 21.939 1.5 21.25 1.5H17V0H21.25C22.767 0 24 1.233 24 2.75V7Z" fill="#3939D6"/>
<path d="M21.25 24H17V22.5H21.25C21.939 22.5 22.5 21.939 22.5 21.25V17H24V21.25C24 22.767 22.767 24 21.25 24Z" fill="#3939D6"/>
<path d="M7 24H2.75C1.233 24 0 22.767 0 21.25V17H1.5V21.25C1.5 21.939 2.061 22.5 2.75 22.5H7V24Z" fill="#3939D6"/>
<path d="M1.5 7H0V2.75C0 1.233 1.233 0 2.75 0H7V1.5H2.75C2.061 1.5 1.5 2.061 1.5 2.75V7Z" fill="#3939D6"/>
<path d="M17.25 19H6.75C5.785 19 5 18.215 5 17.25V14.75H6.5V17.25C6.5 17.388 6.612 17.5 6.75 17.5H17.25C17.388 17.5 17.5 17.388 17.5 17.25V14.75H19V17.25C19 18.215 18.215 19 17.25 19Z" fill="#3939D6"/>
<path d="M19 11H17.5V6.75C17.5 6.612 17.388 6.5 17.25 6.5H6.75C6.612 6.5 6.5 6.612 6.5 6.75V11H5V6.75C5 5.785 5.785 5 6.75 5H17.25C18.215 5 19 5.785 19 6.75V11Z" fill="#3939D6"/>
<path d="M3 14H21V15.5H3V14Z" fill="#3939D6"/>
</svg>
