<svg width="24" height="24" viewBox="0 0 24 24" fill="none" xmlns="http://www.w3.org/2000/svg">
<path d="M14.25 7.5C14.664 7.5 15 7.164 15 6.75V3.75C15 3.336 14.664 3 14.25 3C13.836 3 13.5 3.336 13.5 3.75V6.75C13.5 7.164 13.836 7.5 14.25 7.5ZM21 0H3C1.34325 0 0 1.34325 0 3V21C0 22.6567 1.34325 24 3 24H21C22.6567 24 24 22.6567 24 21V3C24 1.34325 22.6567 0 21 0ZM6 1.5H18V8.25C18 8.664 17.664 9 17.25 9H6.75C6.336 9 6 8.664 6 8.25V1.5ZM22.5 21C22.5 21.8287 21.8287 22.5 21 22.5H3C2.17126 22.5 1.5 21.8287 1.5 21V3C1.5 2.17126 2.17126 1.5 3 1.5H4.5V9C4.5 9.828 5.17126 10.5 6 10.5H18C18.8287 10.5 19.5 9.828 19.5 9V1.5H21C21.8287 1.5 22.5 2.172 22.5 3V21Z" fill="#3939D6"/>
</svg>
