<svg width="26" height="24" viewBox="0 0 26 24" fill="none" xmlns="http://www.w3.org/2000/svg">
<path d="M5.60533 24C5.33094 24 5.05847 23.9144 4.82594 23.7463C4.39277 23.4323 4.19043 22.8927 4.30832 22.3721L5.91945 15.275L0.455509 10.4833C0.0538725 10.1326 -0.0995596 9.57738 0.0653369 9.06931C0.230233 8.5622 0.678874 8.20317 1.21006 8.15407L8.43952 7.49773L11.2978 0.808815C11.5085 0.317373 11.9885 0 12.5218 0C13.0551 0 13.5351 0.317373 13.7458 0.807668L16.6041 7.49773L23.8324 8.15407C24.3647 8.20203 24.8134 8.5622 24.9783 9.06931C25.1432 9.57642 24.9907 10.1326 24.5891 10.4833L19.1251 15.274L20.7363 22.3709C20.8543 22.8927 20.6518 23.4323 20.2188 23.7453C19.7868 24.0583 19.2107 24.0824 18.7558 23.8089L12.5218 20.0836L6.28784 23.811C6.07709 23.9362 5.84226 24 5.60533 24ZM12.5218 18.4787C12.7587 18.4787 12.9934 18.5424 13.2043 18.6675L19.0877 22.1863L17.5671 15.4879C17.4586 15.0111 17.6204 14.5134 17.9888 14.1909L23.148 9.66623L16.3223 9.04638C15.8308 9.00148 15.4082 8.69251 15.2161 8.23967L12.5218 1.92736L9.82423 8.24063C9.63431 8.69041 9.21165 8.99938 8.72136 9.04428L1.89468 9.66412L7.05366 14.1887C7.4232 14.5122 7.58485 15.009 7.47536 15.4869L5.95595 22.1852L11.8393 18.6675C12.05 18.5424 12.2849 18.4787 12.5218 18.4787ZM8.3843 7.62709C8.3843 7.62709 8.3843 7.62823 8.38316 7.62919L8.3843 7.62709ZM16.6572 7.62403L16.6584 7.62613C16.6584 7.62499 16.6584 7.62499 16.6572 7.62403Z" fill="#3939D6"/>
</svg>
