<svg width="25" height="29" viewBox="0 0 25 29" fill="none" xmlns="http://www.w3.org/2000/svg">
<path d="M24 7.74442L23.999 7.7225C23.9855 7.45193 23.976 7.16565 23.9695 6.84712C23.9391 5.29378 22.6981 4.01412 21.144 3.93396C17.9039 3.76711 15.393 2.72162 13.2419 0.643879L13.2236 0.626547C12.5222 -0.0107853 11.4687 -0.00625727 10.7732 0.637079L10.755 0.654569C8.6238 2.75071 6.12295 3.81775 2.88452 4.01266C1.3315 4.10596 0.102513 5.39623 0.0869057 6.94999C0.0836822 7.26641 0.0766615 7.55276 0.0657063 7.82537L0.064659 7.87632C0.0173956 11.1797 -0.0412857 15.291 1.35171 19.0163C2.11767 21.065 3.27141 22.8437 4.78066 24.3034C6.4996 25.9658 8.74697 27.2818 11.4603 28.2146C11.5485 28.245 11.6402 28.2695 11.7336 28.2878C11.8653 28.3135 11.9977 28.326 12.1302 28.3254C12.2626 28.3249 12.3951 28.3112 12.5263 28.2844C12.6195 28.2653 12.7116 28.2398 12.8 28.2084C15.5011 27.2506 17.7335 25.9147 19.435 24.2379C20.9297 22.7648 22.0665 20.9758 22.8135 18.9202C24.1761 15.1718 24.0785 11.0535 24 7.74442ZM21.2597 18.3549C19.828 22.2939 16.8799 25.0074 12.2471 26.6502C12.2305 26.6559 12.2129 26.6609 12.1947 26.6647C12.1468 26.6743 12.098 26.6745 12.0494 26.6651C12.0313 26.6615 12.0137 26.6568 11.9973 26.6513C7.34411 25.0514 4.3684 22.3648 2.90028 18.4381C1.61636 15.0042 1.6702 11.2302 1.71777 7.90081L1.71811 7.88232C1.72965 7.59617 1.73682 7.29649 1.73998 6.96717C1.74702 6.27735 2.29371 5.7043 2.98459 5.66286C4.81719 5.55266 6.42591 5.1915 7.90264 4.55878C9.37744 3.92693 10.6857 3.03956 11.9018 1.84607C11.9637 1.79336 12.0443 1.7928 12.1065 1.84519C13.3341 3.02818 14.6508 3.90426 16.1313 4.52341C17.614 5.14341 19.2261 5.49073 21.0599 5.58516C21.7511 5.62067 22.3033 6.189 22.3167 6.87894C22.3232 7.20994 22.3332 7.50954 22.3474 7.79365C22.4265 11.1264 22.5145 14.9027 21.2597 18.3549Z" fill="#3939D6"/>
<path d="M12.0272 7.21668C8.15551 7.23398 5.01993 10.3979 5.03722 14.2694C5.05452 18.141 8.21823 21.2768 12.0899 21.2596C15.9613 21.2423 19.0971 18.0783 19.0798 14.2066C19.0626 10.3352 15.8986 7.19939 12.0272 7.21668ZM12.0825 19.6062C9.12245 19.6194 6.70362 17.2221 6.6904 14.262C6.67717 11.3019 9.07449 8.88308 12.0346 8.86986C14.9944 8.85664 17.4132 11.254 17.4265 14.214C17.4397 17.1741 15.0424 19.5929 12.0825 19.6062Z" fill="#3939D6"/>
<path d="M14.0664 12.0485L10.8197 15.3243L9.9306 14.4431C9.6063 14.1217 9.0829 14.124 8.76149 14.4483C8.44029 14.7726 8.44263 15.296 8.76671 15.6172L10.2431 17.0805C10.4052 17.2412 10.6171 17.3209 10.8286 17.3199C11.0401 17.319 11.2513 17.2374 11.412 17.0753L15.2407 13.2122C15.5619 12.8879 15.5595 12.3645 15.2355 12.0433C14.9112 11.7217 14.3878 11.724 14.0664 12.0485Z" fill="#3939D6"/>
</svg>
