<svg width="32" height="32" viewBox="0 0 32 32" fill="none" xmlns="http://www.w3.org/2000/svg">
<path d="M13 22.6667H2.33333C1.04667 22.6667 0 21.62 0 20.3333V2.33333C0 1.04667 1.04667 0 2.33333 0H21.6667C22.9533 0 24 1.04667 24 2.33333V10.4667C24 11.0187 23.552 11.4667 23 11.4667C22.448 11.4667 22 11.0187 22 10.4667V2.33333C22 2.152 21.848 2 21.6667 2H2.33333C2.152 2 2 2.152 2 2.33333V20.3333C2 20.5147 2.152 20.6667 2.33333 20.6667H13C13.552 20.6667 14 21.1147 14 21.6667C14 22.2187 13.552 22.6667 13 22.6667Z" fill="#3939D6"/>
<path d="M24 31.9993C23.8667 31.9993 23.7333 31.9727 23.608 31.9193C23.2987 31.7873 16 28.6087 16 22.0713V16.714C16 16.286 16.272 15.906 16.6787 15.7673L23.6787 13.386C23.8867 13.3153 24.1133 13.3153 24.3213 13.386L31.3213 15.7673C31.728 15.906 32 16.286 32 16.714V22.0713C32 28.6087 24.7013 31.7873 24.392 31.9207C24.2667 31.9727 24.1333 31.9993 24 31.9993ZM18 17.43V22.07C18 26.514 22.608 29.186 24 29.89C25.392 29.186 30 26.514 30 22.07V17.43L24 15.3887L18 17.43Z" fill="#3939D6"/>
<path d="M23.6663 26.0008C23.4023 26.0008 23.1463 25.8968 22.9597 25.7075L20.293 23.0408C19.9023 22.6501 19.9023 22.0168 20.293 21.6261C20.6837 21.2355 21.317 21.2355 21.7077 21.6261L23.5597 23.4781L26.8663 19.0675C27.1943 18.6261 27.8223 18.5341 28.2663 18.8688C28.7077 19.1995 28.797 19.8261 28.465 20.2688L24.465 25.6021C24.2917 25.8341 24.0263 25.9781 23.7357 25.9995C23.713 25.9995 23.6903 26.0008 23.6663 26.0008Z" fill="#3939D6"/>
<path d="M14.666 14.667H13.666C13.114 14.667 12.666 14.219 12.666 13.667V7.66699C12.666 7.11499 13.114 6.66699 13.666 6.66699H14.666C16.8713 6.66699 18.666 8.46166 18.666 10.667C18.666 12.8723 16.8713 14.667 14.666 14.667ZM14.666 8.66699V12.667C15.7687 12.667 16.666 11.7697 16.666 10.667C16.666 9.56433 15.7687 8.66699 14.666 8.66699Z" fill="#3939D6"/>
<path d="M9.66732 14.667C9.11532 14.667 8.66732 14.219 8.66732 13.667V9.33366C8.66732 8.96699 8.36732 8.66699 8.00065 8.66699C7.63398 8.66699 7.33398 8.96699 7.33398 9.33366V13.667C7.33398 14.219 6.88598 14.667 6.33398 14.667C5.78198 14.667 5.33398 14.219 5.33398 13.667V9.33366C5.33398 7.86299 6.52998 6.66699 8.00065 6.66699C9.47132 6.66699 10.6673 7.86299 10.6673 9.33366V13.667C10.6673 14.219 10.2193 14.667 9.66732 14.667Z" fill="#3939D6"/>
<path d="M9.66732 12.667H6.33398C5.78198 12.667 5.33398 12.219 5.33398 11.667C5.33398 11.115 5.78198 10.667 6.33398 10.667H9.66732C10.2193 10.667 10.6673 11.115 10.6673 11.667C10.6673 12.219 10.2193 12.667 9.66732 12.667Z" fill="#3939D6"/>
</svg>
