<svg width="25" height="24" viewBox="0 0 25 24" fill="none" xmlns="http://www.w3.org/2000/svg">
<path d="M19.714 12.0005C19.2406 12.0005 18.8569 12.3842 18.8569 12.8576V21.4289C18.8569 21.9023 18.4731 22.2861 17.9997 22.2861H2.5714C2.098 22.2861 1.71425 21.9023 1.71425 21.4289V4.28625C1.71425 3.81285 2.098 3.4291 2.5714 3.4291H12.857C13.3304 3.4291 13.7141 3.04534 13.7141 2.57194C13.7141 2.09855 13.3304 1.71484 12.857 1.71484H2.5714C1.15125 1.71484 0 2.8661 0 4.28625V21.4289C0 22.8491 1.15125 24.0003 2.5714 24.0003H17.9998C19.4199 24.0003 20.5712 22.8491 20.5712 21.4289V12.8576C20.5712 12.3842 20.1874 12.0005 19.714 12.0005Z" fill="#3939D6"/>
<path d="M23.0405 0.961176C22.4251 0.345646 21.5904 -8.68848e-05 20.7199 1.35607e-05C19.849 -0.00249758 19.0134 0.343838 18.3997 0.961729L7.10951 12.251C7.01584 12.3454 6.94518 12.4601 6.90294 12.5861L5.1887 17.7289C5.03908 18.1781 5.28191 18.6634 5.73105 18.813C5.81819 18.842 5.90944 18.8568 6.00125 18.8569C6.09326 18.8568 6.18471 18.842 6.2721 18.8132L11.4149 17.099C11.5412 17.0568 11.656 16.9858 11.75 16.8916L23.0402 5.60141C24.3216 4.32012 24.3218 2.24261 23.0405 0.961176ZM21.8282 4.39023L10.6855 15.533L7.35635 16.6447L8.46462 13.3198L19.6116 2.17712C20.2244 1.56551 21.2171 1.56651 21.8287 2.17933C22.1209 2.47208 22.2855 2.86838 22.2867 3.28197C22.2878 3.69776 22.1227 4.09673 21.8282 4.39023Z" fill="#3939D6"/>
</svg>
