<svg width="100" height="100" viewBox="0 0 100 100" fill="none" xmlns="http://www.w3.org/2000/svg">
<path d="M50 100C77.6142 100 100 77.6142 100 50C100 22.3858 77.6142 0 50 0C22.3858 0 0 22.3858 0 50C0 77.6142 22.3858 100 50 100Z" fill="#FF3187"/>
<path d="M100 50C100 47.0873 99.748 44.2338 99.2701 41.4576L78.9062 21.0938L21.0938 78.9062L41.4576 99.2701C44.2338 99.748 47.0873 100 50 100C77.6143 100 100 77.6143 100 50Z" fill="#CB2E81"/>
<path d="M50.0002 21.0938L39.8379 42.2617L78.9064 35.4869V21.0938H50.0002Z" fill="#2D3E53"/>
<path d="M50 21.0938H21.0938V35.4869L50 42.2617V21.0938Z" fill="#435D7A"/>
<path d="M56.775 35.4873H21.0938V42.6838L56.775 52.8463V35.4873Z" fill="#8DB3CF"/>
<path d="M68.1113 28.29H53.5982L50 35.4867V52.8457L78.9062 42.6832V35.4867H71.7098L68.1113 28.29Z" fill="#5A7BA0"/>
<path d="M78.9066 42.6836H50.0004L36.3535 60.7951L50.0004 78.9064H78.9066V42.6836Z" fill="#A6CFE7"/>
<path d="M21.0938 42.6836H50V78.9064H21.0938V42.6836Z" fill="#BAE9FF"/>
<path d="M71.7102 49.8799H50.0004L36.3535 60.7947L50.0004 71.7096H71.7102V49.8799Z" fill="#E3F6FF"/>
<path d="M28.2891 49.8799H49.9988V71.7096H28.2891V49.8799Z" fill="white"/>
<path d="M26.5977 26.5967H29.9852V29.9842H26.5977V26.5967Z" fill="#FFE487"/>
<path d="M33.793 26.5967H37.1805V29.9842H33.793V26.5967Z" fill="#FF3187"/>
<path d="M40.9883 26.5967H44.3758V29.9842H40.9883V26.5967Z" fill="#36C0FF"/>
</svg>
