<svg width="60" height="60" viewBox="0 0 60 60" fill="none" xmlns="http://www.w3.org/2000/svg">
<path d="M21.6741 29.2536C23.6191 33.2298 26.8422 36.4383 30.8273 38.3651C31.1188 38.5033 31.4413 38.5631 31.7631 38.5388C32.0848 38.5144 32.3946 38.4067 32.6621 38.2263L38.5298 34.3135C38.7894 34.1405 39.0879 34.0349 39.3985 34.0064C39.7092 33.9779 40.022 34.0273 40.3087 34.1501L51.2861 38.8547C51.659 39.0131 51.9703 39.2885 52.1732 39.6392C52.376 39.9899 52.4594 40.3971 52.4107 40.7993C52.0637 43.5143 50.739 46.0097 48.6847 47.8184C46.6303 49.627 43.9871 50.6248 41.25 50.625C32.7962 50.625 24.6887 47.2667 18.711 41.289C12.7332 35.3113 9.375 27.2038 9.375 18.75C9.37514 16.0129 10.373 13.3697 12.1816 11.3153C13.9902 9.26094 16.4857 7.93625 19.2007 7.58928C19.6029 7.54061 20.0101 7.62397 20.3608 7.8268C20.7115 8.02964 20.9868 8.34096 21.1452 8.71387L25.854 19.7009C25.9757 19.9851 26.0254 20.295 25.9984 20.603C25.9715 20.911 25.8687 21.2075 25.6994 21.4662L21.8003 27.424C21.6228 27.692 21.5179 28.0015 21.4958 28.3221C21.4737 28.6428 21.5351 28.9637 21.6741 29.2536V29.2536Z" stroke="#333333" stroke-width="4" stroke-linecap="round" stroke-linejoin="round"/>
</svg>
