<svg width="38" height="55" viewBox="0 0 38 55" fill="none" xmlns="http://www.w3.org/2000/svg">
<path d="M19 0C8.51812 0 0 8.51833 0 19C0 22.5467 0.981878 25.9984 2.85011 28.9751L17.712 53.2966C17.9656 53.7082 18.3456 53.9617 18.789 54.025C19.3905 54.1199 20.0558 53.8667 20.404 53.265L35.3084 28.7217C37.0816 25.8084 38 22.4201 38 19C38 8.51833 29.4819 0 19 0ZM19 28.5C13.6802 28.5 9.5 24.1933 9.5 19C9.5 13.7749 13.7749 9.5 19 9.5C24.2251 9.5 28.5 13.7749 28.5 19C28.5 24.1617 24.3832 28.5 19 28.5Z" fill="#2727C4"/>
<path d="M19 0V9.5C24.2251 9.5 28.5 13.7749 28.5 19C28.5 24.1617 24.3832 28.5 19 28.5V54.0435C19.5403 54.0561 20.096 53.797 20.4039 53.265L35.3083 28.7217C37.0816 25.8084 38 22.4201 38 19C38 8.51833 29.4819 0 19 0Z" fill="#3939D6"/>
</svg>
