<svg width="100" height="100" viewBox="0 0 100 100" fill="none" xmlns="http://www.w3.org/2000/svg">
<path d="M49.9999 99.9999C77.6141 99.9999 99.9999 77.6141 99.9999 49.9999C99.9999 22.3857 77.6141 0 49.9999 0C22.3857 0 0 22.3857 0 49.9999C0 77.6141 22.3857 99.9999 49.9999 99.9999Z" fill="#344D5B"/>
<path opacity="0.1" d="M24.498 24.4971V75.5049L48.9675 99.9743C49.3121 99.9813 49.6537 100 50.0001 100C77.6144 100 100 77.6146 100 50.0004C100 49.6533 99.9809 49.3107 99.9738 48.9651L75.5058 24.4971H24.498V24.4971Z" fill="black"/>
<path d="M24.4961 24.4951H75.506V75.5048H24.4961V24.4951Z" fill="#EDEDED"/>
<path d="M28.8125 28.5098H37.9596V37.6569H28.8125V28.5098Z" fill="#344D5B"/>
<path d="M31.3047 31.0029H35.4643V35.1626H31.3047V31.0029Z" fill="#EDEDED"/>
<path d="M61.6152 28.5098H70.7624V37.6569H61.6152V28.5098Z" fill="#344D5B"/>
<path d="M64.1094 31.0029H68.269V35.1626H64.1094V31.0029Z" fill="#EDEDED"/>
<path d="M28.8125 62.2324H37.9596V71.3796H28.8125V62.2324Z" fill="#344D5B"/>
<path d="M31.3047 64.7266H35.4643V68.8862H31.3047V64.7266Z" fill="#EDEDED"/>
<path d="M61.6152 62.2324H70.7624V71.3796H61.6152V62.2324Z" fill="#344D5B"/>
<path d="M64.1094 64.7266H68.269V68.8862H64.1094V64.7266Z" fill="#EDEDED"/>
<path d="M40.5586 35.1621H42.6665V40.2658H40.5586V35.1621Z" fill="#344D5B"/>
<path d="M50 40.2568H53.0106V45.3605H50V40.2568Z" fill="#344D5B"/>
<path d="M57.0703 28.4512H59.1782V33.5549H57.0703V28.4512Z" fill="#344D5B"/>
<path d="M37.9609 48.4238H40.0688V53.5275H37.9609V48.4238Z" fill="#344D5B"/>
<path d="M45.0742 57.9551H47.1821V63.0588H45.0742V57.9551Z" fill="#344D5B"/>
<path d="M68.4961 39.6621H70.604V44.7658H68.4961V39.6621Z" fill="#344D5B"/>
<path d="M68.9727 52.5254H71.0806V57.6291H68.9727V52.5254Z" fill="#344D5B"/>
<path d="M28.8125 42.8086H31.8811V47.9123H28.8125V42.8086Z" fill="#344D5B"/>
<path d="M31.3047 47.0195H34.3733V52.1232H31.3047V47.0195Z" fill="#344D5B"/>
<path d="M40.5586 42.8086H42.6665V45.6162H40.5586V42.8086Z" fill="#344D5B"/>
<path d="M34.7656 39.7363H37.5732V42.5439H34.7656V39.7363Z" fill="#344D5B"/>
<path d="M50.4473 28.416H53.2548V31.2236H50.4473V28.416Z" fill="#344D5B"/>
<path d="M45.5781 39.7363H47.686V42.5439H45.5781V39.7363Z" fill="#344D5B"/>
<path d="M55.3535 38.2578H57.4614V41.0654H55.3535V38.2578Z" fill="#344D5B"/>
<path d="M48.9453 33.083H51.0532V35.8906H48.9453V33.083Z" fill="#344D5B"/>
<path d="M54.9609 33.083H57.0688V35.8906H54.9609V33.083Z" fill="#344D5B"/>
<path d="M66.3867 43.3623H68.4946V46.1699H66.3867V43.3623Z" fill="#344D5B"/>
<path d="M64.4609 40.3506V42.4585H61.6534V40.3506H64.4609Z" fill="#344D5B"/>
<path d="M61.6172 42.3086V44.4165H58.8096V42.3086H61.6172Z" fill="#344D5B"/>
<path d="M68.8457 57.335V59.4429H66.0381V57.335H68.8457Z" fill="#344D5B"/>
<path d="M69.6719 47.9121V52.5257H66.8643V47.9121H69.6719Z" fill="#344D5B"/>
<path d="M64.8984 50.418V52.5259H62.0909V50.418H64.8984Z" fill="#344D5B"/>
<path d="M44.5234 28.1953H46.6313V31.0029H44.5234V28.1953Z" fill="#344D5B"/>
<path d="M42.416 45.6162H44.5239V48.4238H42.416V45.6162Z" fill="#344D5B"/>
<path d="M44.5234 48.168H46.6313V50.9755H44.5234V48.168Z" fill="#344D5B"/>
<path d="M56.4062 68.8857H58.5141V71.6933H56.4062V68.8857Z" fill="#344D5B"/>
<path d="M48.5078 68.8857H51.5075V71.6933H48.5078V68.8857Z" fill="#344D5B"/>
<path d="M40.5391 59.4609H42.647V62.2685H40.5391V59.4609Z" fill="#344D5B"/>
<path d="M46.207 43.5791H49.9993V46.3867H46.207V43.5791Z" fill="#344D5B"/>
<path d="M47.8945 50.418H52.8563V55.4304H47.8945V50.418Z" fill="#344D5B"/>
<path d="M39.9355 52.2324H43.5975V55.9318H39.9355V52.2324Z" fill="#344D5B"/>
<path d="M59.1719 47.4941H62.385V50.7401H59.1719V47.4941Z" fill="#344D5B"/>
<path d="M52.8555 45.1045H54.9634V47.9121H52.8555V45.1045Z" fill="#344D5B"/>
<path d="M54.3008 58.8281H56.4087V66.8056H54.3008V58.8281Z" fill="#344D5B"/>
<path d="M59.1582 55.4297H61.2661V58.2373H59.1582V55.4297Z" fill="#344D5B"/>
<path d="M57.0625 50.0684H59.1704V52.8759H57.0625V50.0684Z" fill="#344D5B"/>
<path d="M55.3535 52.5254H57.4614V55.333H55.3535V52.5254Z" fill="#344D5B"/>
<path d="M52.3516 54.7383H55.8588V57.5459H52.3516V54.7383Z" fill="#344D5B"/>
<path d="M35.4648 55.9316H37.5727V58.7392H35.4648V55.9316Z" fill="#344D5B"/>
<path d="M52.1914 64.7266H54.2993V67.5341H52.1914V64.7266Z" fill="#344D5B"/>
<path d="M43.4688 67.0488H45.5766V69.8564H43.4688V67.0488Z" fill="#344D5B"/>
<path d="M41.6133 64.4893H43.7212V67.2968H41.6133V64.4893Z" fill="#344D5B"/>
<path d="M48.5605 59.4609H50.6684V62.2685H48.5605V59.4609Z" fill="#344D5B"/>
<path d="M33.1914 58.124V60.2319H30.3838V58.124H33.1914Z" fill="#344D5B"/>
</svg>
