<svg width="65" height="65" viewBox="0 0 65 65" fill="none" xmlns="http://www.w3.org/2000/svg">
<path d="M32.5 56.875C45.9619 56.875 56.875 45.9619 56.875 32.5C56.875 19.0381 45.9619 8.125 32.5 8.125C19.0381 8.125 8.125 19.0381 8.125 32.5C8.125 45.9619 19.0381 56.875 32.5 56.875Z" stroke="#333333" stroke-width="4" stroke-miterlimit="10"/>
<path d="M32.5 40.625C38.1091 40.625 42.6562 36.0779 42.6562 30.4688C42.6562 24.8596 38.1091 20.3125 32.5 20.3125C26.8909 20.3125 22.3438 24.8596 22.3438 30.4688C22.3438 36.0779 26.8909 40.625 32.5 40.625Z" stroke="#333333" stroke-width="4" stroke-miterlimit="10"/>
<path d="M16.199 50.6223C17.729 47.6141 20.0617 45.0879 22.9387 43.3234C25.8158 41.5589 29.1249 40.625 32.5 40.625C35.875 40.625 39.1842 41.5589 42.0612 43.3234C44.9382 45.0878 47.2709 47.614 48.801 50.6223" stroke="#333333" stroke-width="4" stroke-linecap="round" stroke-linejoin="round"/>
</svg>
