<svg width="18" height="12" viewBox="0 0 18 12" fill="none" xmlns="http://www.w3.org/2000/svg">
<path d="M15.9597 5.15892C16.2157 4.82803 16.4189 4.56253 16.569 4.36222C17.6498 2.92523 18.1183 2.00727 17.9747 1.60705L17.9184 1.51332C17.881 1.45702 17.7839 1.40532 17.6279 1.35853C17.4716 1.31176 17.2717 1.30429 17.0282 1.33516L14.3291 1.3542C14.2667 1.34798 14.2041 1.34943 14.1416 1.35853C14.0792 1.36803 14.0386 1.37756 14.0197 1.38666C14.0009 1.39619 13.9854 1.40384 13.973 1.41006L13.9356 1.43819C13.9043 1.45682 13.87 1.48972 13.8325 1.53672C13.795 1.58369 13.7636 1.63813 13.7388 1.70082C13.4451 2.45674 13.1109 3.15972 12.736 3.80951C12.5048 4.19691 12.2923 4.53297 12.0988 4.81687C11.9051 5.10141 11.7427 5.31064 11.6114 5.44471C11.4803 5.57902 11.3615 5.68702 11.2554 5.76797C11.149 5.84949 11.0679 5.88364 11.0118 5.87123C10.9555 5.85882 10.9023 5.84641 10.8524 5.83356C10.7649 5.7775 10.6945 5.70112 10.6416 5.60407C10.5884 5.50747 10.5526 5.38554 10.5337 5.23862C10.5151 5.09191 10.504 4.96528 10.501 4.8589C10.4977 4.75276 10.4994 4.60293 10.5058 4.40902C10.512 4.2153 10.5151 4.08434 10.5151 4.01543C10.5151 3.77826 10.5199 3.52044 10.5293 3.24233C10.5385 2.96442 10.5464 2.74402 10.5526 2.58155C10.5588 2.41931 10.5619 2.24734 10.5619 2.06607C10.5619 1.8852 10.551 1.74281 10.5289 1.63958C10.507 1.53672 10.4741 1.43677 10.4307 1.33973C10.3868 1.24309 10.3229 1.16796 10.2384 1.115C10.154 1.06182 10.0495 1.01982 9.92453 0.988341C9.5932 0.913208 9.17148 0.873071 8.65931 0.866478C7.49716 0.854474 6.75053 0.92937 6.41943 1.09161C6.28823 1.16052 6.16945 1.25404 6.06331 1.37283C5.95074 1.51045 5.93522 1.58555 6.01655 1.59755C6.3915 1.65385 6.65683 1.78836 6.81305 2.00067L6.86935 2.11303C6.913 2.19456 6.95669 2.3382 7.00054 2.54429C7.04423 2.75041 7.07236 2.97845 7.08497 3.22843C7.11622 3.6845 7.11622 4.07481 7.08497 4.39992C7.05373 4.725 7.02414 4.97789 6.99601 5.15875C6.96784 5.34003 6.92565 5.48674 6.86955 5.5991C6.81325 5.71187 6.77582 5.78058 6.75699 5.8056C6.73815 5.83042 6.72263 5.84614 6.71022 5.8524C6.6289 5.88344 6.54467 5.89916 6.45716 5.89916C6.36962 5.89916 6.26345 5.85527 6.13848 5.76773C6.01347 5.68063 5.88373 5.56018 5.74962 5.40704C5.61512 5.25414 5.46384 5.03997 5.29497 4.76493C5.12631 4.49034 4.95123 4.16522 4.77016 3.79047L4.62033 3.51855C4.5266 3.3439 4.39848 3.08915 4.23605 2.75494C4.07361 2.42073 3.92977 2.09751 3.805 1.78484C3.75492 1.65385 3.67999 1.5539 3.58007 1.48499L3.53331 1.45686C3.50206 1.432 3.45199 1.40532 3.38328 1.37736C3.31437 1.34923 3.24278 1.32894 3.16765 1.31633L0.599778 1.33496C0.337388 1.33496 0.159429 1.39457 0.065699 1.51332L0.028234 1.56942C0.00929862 1.60087 0 1.65094 0 1.71945C0 1.78836 0.0188339 1.87259 0.0562989 1.97234C0.431253 2.85347 0.838938 3.70317 1.27929 4.52138C1.71987 5.34003 2.1025 5.99932 2.42738 6.49908C2.75226 6.99924 3.08335 7.47063 3.42088 7.91429C3.7584 8.35795 3.98167 8.64205 4.09092 8.76686C4.20017 8.89207 4.28606 8.98583 4.34858 9.04808L4.58283 9.27321C4.73266 9.42307 4.95305 9.60265 5.24361 9.81209C5.53413 10.0215 5.85573 10.2276 6.20898 10.4304C6.56182 10.6336 6.97278 10.799 7.44126 10.9273C7.90978 11.0556 8.36585 11.1071 8.80951 11.0818H9.88727C10.106 11.0632 10.2715 10.9947 10.3839 10.8757L10.4214 10.829C10.4462 10.7917 10.4698 10.7338 10.4917 10.6557C10.5134 10.5777 10.5247 10.4916 10.5247 10.3981C10.5182 10.1295 10.5387 9.88698 10.5855 9.67176C10.6322 9.45614 10.6854 9.2939 10.7448 9.18425C10.8042 9.07516 10.8712 8.98289 10.9463 8.90776C11.0213 8.83262 11.0743 8.78772 11.1057 8.772C11.1369 8.75668 11.162 8.74572 11.1807 8.7391C11.3305 8.68919 11.507 8.73764 11.7102 8.88436C11.9132 9.03151 12.1038 9.21235 12.282 9.42797C12.4599 9.6436 12.6739 9.8855 12.9239 10.1543C13.1736 10.4229 13.3923 10.6228 13.5798 10.754L13.7673 10.8668C13.8923 10.9415 14.0545 11.0102 14.2547 11.0729C14.4546 11.1352 14.6296 11.1509 14.7794 11.1197L17.1786 11.082C17.416 11.082 17.6004 11.0431 17.7316 10.9649C17.8628 10.8873 17.9409 10.8008 17.9659 10.7073C17.9907 10.6135 17.9924 10.5078 17.9706 10.3888C17.9487 10.2702 17.9268 10.1874 17.9051 10.1407C17.8832 10.0939 17.8628 10.0546 17.844 10.0235C17.5316 9.46128 16.9349 8.77071 16.054 7.9523L16.0351 7.93367L16.0259 7.92416L16.0166 7.91503H16.0072C15.6071 7.53386 15.3543 7.27766 15.2481 7.14626C15.0544 6.89672 15.0105 6.64363 15.1169 6.38746C15.1914 6.1932 15.4724 5.78389 15.9597 5.15892Z" fill="#A8A8A8"/>
</svg>
