<svg width="672" height="657" viewBox="0 0 672 657" fill="none" xmlns="http://www.w3.org/2000/svg">
<path d="M579.906 251.799L608.406 301.162C613.929 310.729 610.652 322.959 601.085 328.483L552.588 356.483C543.021 362.006 530.791 358.729 525.267 349.162C519.744 339.596 523.021 327.365 532.588 321.842L563.765 303.842L545.265 271.799C539.741 262.232 543.018 250.002 552.585 244.478C562.152 238.955 574.382 242.232 579.906 251.799ZM291.883 304.928C301.449 299.405 304.727 287.175 299.203 277.608L276.703 238.637L294.024 228.637C303.59 223.113 306.868 210.883 301.344 201.316L245.344 104.321C239.7 94.5449 227.05 91.3385 217.397 97.3764C208.206 103.129 205.519 115.343 210.943 124.738L218.703 138.178L201.383 148.178C191.816 153.701 188.539 165.932 194.062 175.498C199.585 185.065 211.816 188.342 221.383 182.819L238.703 172.819L256.703 203.996L239.383 213.996C229.816 219.519 226.539 231.749 232.062 241.316L264.562 297.608C270.085 307.175 282.316 310.452 291.883 304.928ZM143.821 480.478C153.388 474.955 156.665 462.725 151.142 453.158L141.142 435.837L159.328 425.337C168.895 419.814 172.172 407.584 166.649 398.017C161.125 388.45 148.895 385.173 139.328 390.696L103.821 411.196C94.2542 416.72 90.9771 428.95 96.5006 438.517L116.501 473.158C122.024 482.725 134.254 486.002 143.821 480.478ZM380.165 297.837L426.93 270.837L456.69 322.383C462.114 331.777 474.034 335.558 483.612 330.475C493.668 325.134 497.216 312.576 491.571 302.799L481.571 285.478L499.758 274.978C509.324 269.455 512.601 257.225 507.078 247.658C501.555 238.091 489.324 234.814 479.758 240.337L461.571 250.837L451.571 233.517C446.048 223.95 433.817 220.673 424.25 226.196L360.165 263.196C350.598 268.72 347.321 280.95 352.844 290.517C358.368 300.084 370.598 303.361 380.165 297.837ZM512.585 175.196C503.018 180.72 499.741 192.95 505.265 202.517C510.788 212.084 523.018 215.361 532.585 209.837C542.152 204.314 545.429 192.084 539.906 182.517C534.382 172.95 522.152 169.673 512.585 175.196ZM400.165 332.478C390.598 338.002 387.321 350.232 392.844 359.799L411.344 391.842L402.684 396.842C393.117 402.365 389.84 414.596 395.363 424.162C400.887 433.729 413.117 437.006 422.684 431.483L448.665 416.483C458.231 410.959 461.509 398.729 455.985 389.162L427.485 339.799C421.962 330.232 409.731 326.955 400.165 332.478ZM488.665 485.765L471.344 495.765L461.344 478.444C455.821 468.878 443.59 465.601 434.024 471.124L416.703 481.124L406.703 463.803C401.18 454.237 388.949 450.959 379.383 456.483C369.816 462.006 366.539 474.237 372.062 483.803L392.062 518.444C397.585 528.011 409.816 531.288 419.383 525.765L436.703 515.765L446.703 533.085C452.227 542.652 464.457 545.929 474.024 540.406L508.665 520.406C518.231 514.883 521.509 502.652 515.985 493.085C510.462 483.519 498.231 480.242 488.665 485.765ZM537.947 411.124C532.423 401.557 520.193 398.28 510.626 403.803L501.966 408.803C492.399 414.327 489.122 426.557 494.645 436.124C500.169 445.691 512.399 448.968 521.966 443.444L530.626 438.444C540.193 432.921 543.47 420.691 537.947 411.124ZM641.085 397.765L627.229 405.765L617.229 388.444C611.705 378.878 599.475 375.601 589.908 381.124C580.341 386.647 577.064 398.878 582.588 408.444L592.588 425.765L557.947 445.765C548.38 451.288 545.103 463.519 550.626 473.085C556.15 482.652 568.38 485.929 577.947 480.406L661.085 432.406C670.652 426.883 673.929 414.652 668.406 405.085C662.882 395.519 650.652 392.242 641.085 397.765ZM349.383 404.521C358.949 398.998 362.227 386.768 356.703 377.201L338.203 345.158C332.68 335.591 320.449 332.314 310.883 337.837L248.529 373.837L238.769 356.933C233.345 347.539 221.424 343.758 211.847 348.841C201.791 354.182 198.243 366.74 203.888 376.517L213.888 393.837L205.227 398.837C195.661 404.361 192.384 416.591 197.907 426.158C203.43 435.725 215.661 439.002 225.227 433.478L313.562 382.478L322.062 397.201C327.585 406.768 339.816 410.045 349.383 404.521ZM39.0006 338.924L9.00056 286.962C-7.54241 258.309 2.30882 221.544 30.9621 205.001L82.9236 175.001C111.577 158.458 148.342 168.309 164.885 196.962L194.885 248.924C211.428 277.577 201.577 314.343 172.924 330.886L120.962 360.886C92.3088 377.429 55.5435 367.577 39.0006 338.924ZM73.6416 318.924C79.1553 328.474 91.4121 331.758 100.962 326.245L152.924 296.245C162.474 290.731 165.758 278.474 160.244 268.924L130.244 216.962C124.73 207.413 112.474 204.128 102.924 209.642L50.9621 239.642C41.4121 245.156 38.1279 257.413 43.6416 266.962L73.6416 318.924ZM111.943 285.264C121.51 279.74 124.787 267.51 119.263 257.943C113.74 248.376 101.51 245.099 91.9428 250.623C82.376 256.146 79.0989 268.376 84.6223 277.943C90.1458 287.51 102.376 290.787 111.943 285.264ZM452.406 30.9625L482.406 82.924C498.949 111.577 489.097 148.343 460.444 164.886L408.483 194.886C379.829 211.429 343.064 201.577 326.521 172.924L296.521 120.962C279.978 92.3092 289.829 55.5439 318.483 39.001L370.444 9.00098C399.097 -7.54199 435.863 2.30924 452.406 30.9625ZM417.765 50.9625C412.251 41.4125 399.994 38.1283 390.444 43.642L338.483 73.642C328.933 79.1557 325.648 91.4125 331.162 100.962L361.162 152.924C366.676 162.474 378.933 165.758 388.483 160.245L440.444 130.245C449.994 124.731 453.278 112.474 447.765 102.924L417.765 50.9625ZM379.463 84.6228C369.896 90.1462 366.619 102.376 372.143 111.943C377.666 121.51 389.896 124.787 399.463 119.264C409.03 113.74 412.307 101.51 406.784 91.9433C401.26 82.3764 389.03 79.0993 379.463 84.6228ZM330.885 484.483L360.885 536.444C377.428 565.098 367.577 601.863 338.924 618.406L286.962 648.406C258.309 664.949 221.544 655.098 205.001 626.444L175.001 574.483C158.458 545.83 168.309 509.064 196.962 492.521L248.924 462.521C277.577 445.978 314.342 455.83 330.885 484.483ZM296.244 504.483C290.73 494.933 278.474 491.649 268.924 497.162L216.962 527.162C207.412 532.676 204.128 544.933 209.642 554.483L239.642 606.444C245.155 615.994 257.412 619.279 266.962 613.765L318.924 583.765C328.474 578.251 331.758 565.994 326.244 556.444L296.244 504.483ZM257.943 538.143C248.376 543.667 245.099 555.897 250.622 565.464C256.146 575.031 268.376 578.308 277.943 572.784C287.51 567.261 290.787 555.031 285.263 545.464C279.74 535.897 267.51 532.62 257.943 538.143Z" fill="#01122B" fill-opacity="0.03"/>
</svg>
